<?xml version="1.0" standalone="no"?>
<!DOCTYPE svg PUBLIC "-//W3C//DTD SVG 20010904//EN" "http://www.w3.org/TR/2001/REC-SVG-20010904/DTD/svg10.dtd">
<!-- Created using Krita: https://krita.org -->
<svg xmlns="http://www.w3.org/2000/svg" 
    xmlns:xlink="http://www.w3.org/1999/xlink"
    xmlns:krita="http://krita.org/namespaces/svg/krita"
    xmlns:sodipodi="http://sodipodi.sourceforge.net/DTD/sodipodi-0.dtd"
    width="32"
    height="32"
    viewBox="0 0 240 240">
<defs>
  <linearGradient id="gradient0" gradientUnits="objectBoundingBox" x1="0" y1="0" x2="1" y2="1" spreadMethod="reflect">
   <stop stop-color="#223030" offset="0" stop-opacity="1"/>
   <stop stop-color="#18e2e2" offset="1" stop-opacity="1"/>
  </linearGradient>
 </defs>
<path id="shape0" transform="translate(1.33094751260744, 1.13693729252312)" fill="url(#gradient0)" stroke="none" stroke-width="0.24" stroke-linecap="square" stroke-linejoin="bevel" d="M120.54 0.0180627C187.294 1.18091 236.702 55.3894 237.379 118.863C238.056 182.337 182.463 239.899 118.669 237.847C54.8754 235.795 2.60679 188.845 0.0818647 121.418C-2.44306 53.9914 53.7866 -1.14479 120.54 0.0180627ZM19.0824 88.7441C18.4749 90.6791 17.1633 97.2799 16.1888 104.735C15.2144 112.19 15.103 114.2 15.0191 121.563C14.8418 137.112 25.2081 216.906 118.309 221.433C170.844 221.939 220.104 181.972 221.472 118.863C221.602 50.7017 166.562 20.9641 132.985 15.7508C125.76 14.8302 116.915 14.7864 106.45 15.6196C102.503 16.1132 79.2107 17.8218 56.0825 35.6123C40.6637 47.4727 29.2093 62.8243 21.7193 81.6672C25.1568 83.4847 29.2949 84.3244 34.1336 84.1861C37.3804 84.0933 41.8713 83.4636 43.7039 83.1536C45.968 82.7705 46.887 81.8758 48.6213 81.6271C50.3555 81.3784 52.502 84.4337 57.4633 84.1721C62.4247 83.9105 92.4553 92.2581 97.191 96.3925C101.927 100.527 101.237 104.597 103.995 105.012C105.834 105.289 110.016 105.287 116.542 105.008C116.136 97.0246 115.64 92.0959 115.052 90.2218C114.612 88.8163 114.868 86.5546 114.961 81.1924C114.326 75.0658 113.067 69.5666 113.785 67.1344C114.143 65.9183 121.42 61.3504 129.015 56.5996C137.547 52.2241 144.52 46.915 146.147 44.967C147.775 43.0191 150.472 28.3381 152.229 26.9687C153.986 25.5993 156.871 25.624 156.457 27.2829C156.042 28.9419 153.133 45.8959 150.749 49.2139C148.364 52.5319 139.133 56.6147 134.868 62.2627C130.603 67.9107 125.923 67.9063 125.816 69.1079C125.71 70.3094 125.713 77.2702 122.972 80.2923C122.414 81.9934 122.576 83.718 123.459 85.4661C124.764 86.9605 125.53 88.2556 125.756 89.3513C125.982 90.447 126.115 91.8896 126.156 93.679C127.064 93.934 128.301 93.842 129.209 93.3053C130.578 88.1063 132.721 84.7341 135.639 83.1888C140.015 80.8708 145.216 76.8137 146.188 74.3951C147.159 71.9765 147.594 71.2755 148.794 69.8513C149.993 68.427 151.347 68.191 153.068 66.8541C154.789 65.5172 163.873 56.4242 164.951 55.6618C166.03 54.8993 171.612 53.3286 174.417 52.8335C177.222 52.3385 180.5 49.0749 181.503 47.8318C182.506 46.5888 185.519 47.8999 185.916 47.9474C186.504 48.0176 186.003 49.7566 185.818 50.8082C185.507 52.5709 182.667 55.2454 181.02 56.2136C179.372 57.1818 177.745 58.7861 173.706 59.2916C169.667 59.797 166.817 59.9577 163.965 63.7893C161.113 67.6209 158.935 67.2723 158.117 69.9484C157.299 72.6246 152.256 79.5564 149.913 80.4078C147.57 81.2593 145.227 83.4537 144.812 85.3201C144.398 87.1864 142.362 91.7781 143.814 92.6076C144.782 93.1606 146.104 93.1775 147.78 92.6584C148.143 89.3608 148.946 87.0208 150.19 85.6383C152.057 83.5645 154.358 82.3773 158.028 81.7042C161.697 81.0311 172.298 82.8162 175.768 85.7159C179.237 88.6156 182.689 93.2843 182.934 94.9613C183.098 96.0793 183.364 96.828 183.733 97.2072C188.084 96.6725 190.865 97.2 192.074 98.7899C193.284 100.38 193.719 103.223 193.38 107.319C193.069 108.508 192.338 109.271 191.188 109.609C189.463 110.116 188.131 105.859 187.493 105.171C186.856 104.482 185.118 105.397 184.652 106.123C184.185 106.849 180.688 112.492 181.414 114.877C182.139 117.261 181.782 118.353 184.426 118.353C187.07 118.353 187.759 116.761 188.102 116.437C188.331 116.221 189.909 116.223 192.837 116.445C192.507 119.325 191.91 121.284 191.046 122.321C189.75 123.876 185.605 125.712 184.05 125.712C182.494 125.712 179.046 125.544 176.557 122.9C174.069 120.256 173.65 119.508 171.161 119.508C168.673 119.508 157.754 118.74 156.173 117.418C155.382 116.757 154.186 115.647 153.609 115.189C153.321 114.959 153.169 114.414 152.915 114.232C152.944 114.215 156.515 110.99 156.629 110.929C156.769 111.044 157.526 111.71 157.668 111.811C157.954 112.013 158.244 112.188 158.539 112.339C159.128 112.642 159.738 112.849 160.368 112.987C161.63 113.264 162.978 113.264 164.429 113.195C167.333 113.057 168.577 111.674 168.577 109.877C168.577 108.08 165.812 105.591 163.876 104.485C161.941 103.379 160.815 103.887 159.156 103.887C158.327 103.749 158.327 103.749 156.391 105.269C155.424 106.03 155.182 107.205 155.458 108.449C155.597 109.071 155.054 108.788 155.426 109.402C155.612 109.708 155.823 110.009 156.058 110.297C156.175 110.444 156.298 110.589 156.426 110.727C156.49 110.797 156.562 110.869 156.621 110.928C156.68 110.988 152.905 114.212 152.911 114.231C152.657 114.048 152.229 113.823 151.995 113.685C151.009 113.641 150.89 113.739 149.753 113.756C148.616 113.773 146.757 114.138 146.809 115.486C146.861 116.834 149.587 118.051 150.278 121.335C150.97 124.618 153.209 124.133 156.527 126.829C159.845 129.525 159.949 130.275 163.474 130.275C167 130.275 170.151 129.466 175.128 129.258C180.105 129.051 183.861 132.706 187.387 136.024C190.912 139.342 195.214 140.121 200.398 140.121C205.583 140.121 208.128 141.688 208.086 143.244C208.044 144.799 204.984 146.413 198.709 145.169C192.434 143.925 189.43 145.35 184.35 141.721C179.269 138.092 177.301 135.729 171.599 135.626C165.896 135.522 165.353 135.162 162.347 136.302C159.34 137.443 160.464 137.289 157.975 137.289C155.487 137.289 152.83 133.676 151.533 133.624C150.237 133.572 144.188 133.492 142.892 131.989C141.596 130.485 140.683 126.876 139.595 125.631C138.506 124.387 137.086 123.991 136.178 123.965C135.271 123.939 134.142 123.667 134.013 125.3C133.883 126.933 133.732 128.035 135.65 129.487C137.568 130.938 140.421 134.798 143.71 136.749C147 138.699 152.674 152.024 155.372 152.087C159.93 152.061 186.925 159.309 192.217 161.402C197.509 163.495 197.484 167.382 195.687 167.935C193.889 168.488 190.764 167.774 189.52 167.498C188.276 167.221 181.653 163.881 174.809 163.881C167.966 163.881 166.055 161.258 164.292 160.739C162.529 160.221 156.057 159.183 153.673 160.358C151.288 161.533 147.958 158.551 147.232 156.892C146.506 155.233 146.005 152.975 145.596 151.666C145.187 150.356 140.645 146.403 136.218 142.718C132.892 138.773 129.631 134.673 126.931 133.929C124.232 133.186 124.022 128.109 122.225 128.109C120.428 128.109 119.291 127.92 118.669 130.857C118.254 132.816 115.907 136.454 111.627 141.77C111.62 144.105 110.787 146.701 109.128 149.558C106.639 153.844 102.086 155.138 99.5972 158.594C97.1087 162.05 86.2641 171.201 86.2641 173.413C86.2641 175.625 86.1003 182.936 84.7178 185.424C83.3353 187.913 80.7669 194.845 80.2139 197.749C79.6609 200.652 75.7884 207.954 73.8529 206.433C71.9174 204.913 72.8957 198.713 73.1722 196.459C73.4487 194.206 76.8461 188.118 77.8139 185.906C78.7816 183.694 79.8804 182.181 78.4979 179.001C77.1154 175.822 77.6091 175.304 77.3326 172.678C77.0561 170.051 91.8828 159.714 94.9243 156.258C97.9657 152.802 102.497 150.565 103.741 143.376C104.986 136.187 104.211 135.542 103.658 132.086C103.105 128.63 106.079 129.589 106.079 128.276C106.079 126.962 105.187 125.395 103.253 125.049C101.319 124.703 101.314 127.251 101.852 128.426C102.391 129.601 102.444 130.135 102.362 131.852C102.28 133.569 97.3912 135.922 96.9074 138.678C96.4235 141.433 93.8455 147.148 92.8778 148.512C91.91 149.877 86.3063 152.535 82.7118 157.185C79.1174 161.835 74.2545 165.924 70.8674 166.615C67.4803 167.306 56.7022 167.339 52.7621 166.371C48.822 165.403 45.5517 160.756 43.1323 157.161C40.7129 153.567 37.699 147.518 37.1825 144.83C36.666 142.142 35.6527 137.375 37.0025 133.726C38.3522 130.077 56.8814 107.87 61.1697 108.156C65.458 108.441 74.5364 108.832 78.0853 107.09C81.6342 105.348 83.3792 105.428 85.6084 107.864C87.8377 110.301 88.0606 115.59 91.586 115.019C95.1113 114.449 95.5135 114.494 94.92 112.68C94.3264 110.865 92.5818 110.256 91.5967 107.923C90.6117 105.591 87.4435 102.673 85.9333 102.349C84.4231 102.025 81.4248 99.9579 79.87 98.7456C77.1844 96.6517 77.6082 96.5699 73.8198 95.4639C70.0314 94.3579 68.6518 94.1328 67.0158 93.9017C63.0408 93.3402 58.447 93.4876 55.6495 92.2662C52.8519 91.0447 51.8519 89.1748 48.8019 89.2474C46.7685 89.2959 42.4649 89.4966 35.8908 89.8496C31.6842 88.909 26.298 88.4893 19.732 88.5907" sodipodi:nodetypes="czzzzccscccczczczzzzczczczzzzzzcczcczzzzzzzczzzzzzzzczzzzczczzzzzzczzzzzccccccczzccccccccczzzzzzzzzzzzzzzzzzzzzczzzzzzzzczzzczzzzzzzzzzzzzzzzzzzzzzzzzzzzzzzzczczzcc"/>
</svg>
